<svg width="69" height="32" viewBox="0 0 69 32" fill="none" xmlns="http://www.w3.org/2000/svg">
<g clip-path="url(#clip0_540_12729)">
<path d="M7.3284 21.1501C9.34319 21.1501 10.7316 20.482 10.7316 19.2606C10.7316 18.3315 9.96955 17.6634 8.6542 17.4337L5.20922 16.8282C2.81862 16.4315 0.605481 15.231 0.605481 12.4124C0.605481 9.39543 3.22575 7.53723 7.09874 7.53723C10.1053 7.53723 13.592 8.56029 13.9261 12.6525H10.7316C10.5646 10.9613 9.07177 10.2932 7.09874 10.2932C5.12571 10.2932 4.01914 11.024 4.01914 12.1201C4.01914 12.9552 4.61418 13.7486 6.43062 14.0514L9.34319 14.5107C11.692 14.9491 14.0096 15.9722 14.0096 18.9892C14.0096 22.2776 11.1283 23.9687 7.22401 23.9687C3.54937 23.9687 0.396694 22.5072 0 18.3941L3.17355 18.4359C3.53893 20.3567 4.95868 21.1501 7.31796 21.1501H7.3284Z" fill="#3C3C3B"/>
<path d="M27.7686 23.3424C26.4115 23.8435 25.284 23.9687 24.2192 23.9687C20.2523 23.9687 18.1331 21.5781 18.1331 17.559V10.8674H14.4585V7.9757H18.1331V2.22363H21.5781V7.9757H27.3406V10.8674H21.5781V17.5694C21.5781 19.8243 22.7055 20.7952 24.6264 20.7952C25.5555 20.7952 26.4741 20.5238 27.278 20.1897L27.7582 23.3424H27.7686Z" fill="#3C3C3B"/>
<path d="M44.3567 7.97559V23.5928H40.9535V22.0687C39.5963 23.3005 37.9052 23.9999 35.8904 23.9999C31.8504 23.9999 29.1361 21.1083 29.1361 16.6298V7.97559H32.5394V16.4106C32.5394 19.2605 34.0948 20.8681 36.5794 20.8681C38.0931 20.8681 39.6903 20.0121 40.9535 18.4149V7.97559H44.3462H44.3567Z" fill="#3C3C3B"/>
<path d="M61.9887 0V23.572H58.5646V22.3088C57.2388 23.3736 55.5581 23.9687 53.5642 23.9687C49.1901 23.9687 45.6825 20.3254 45.6825 15.7321C45.6825 11.1388 49.1901 7.56851 53.5642 7.56851C55.5581 7.56851 57.2388 8.17399 58.5646 9.19704V0H61.9887ZM58.5646 18.5716V12.9552C57.4058 11.2953 55.7877 10.7003 54.0652 10.7003C51.2153 10.7003 49.1274 12.9865 49.1274 15.7425C49.1274 18.4985 51.2049 20.8578 54.0652 20.8578C55.7877 20.8578 57.4058 20.2523 58.5646 18.5716V18.5716Z" fill="#FFB527"/>
<path d="M67.1666 7.97559V23.5511H63.7738V7.97559H67.1666Z" fill="#FFB527"/>
<path d="M68.9413 -5.87251e-05L63.7738 1.77463L67.1666 5.18828L68.9413 -0.010498V-5.87251e-05Z" fill="#FFB527"/>
</g>
<defs>
<clipPath id="clip0_540_12729">
<rect width="68.9413" height="24" fill="white"/>
</clipPath>
</defs>
</svg>
